<svg xmlns="http://www.w3.org/2000/svg" viewBox="0 0 300 300" fill="none">
  <defs>
    <linearGradient id="goldGradient" x1="0%" y1="0%" x2="100%" y2="100%">
      <stop offset="0%" style="stop-color:#FFD700;stop-opacity:1" />
      <stop offset="50%" style="stop-color:#FDB931;stop-opacity:1" />
      <stop offset="100%" style="stop-color:#FFD700;stop-opacity:1" />
    </linearGradient>
  </defs>
  
  <!-- The Number 2 -->
  <path d="M60 60 H 140 V 100 H 60 V 140 H 140 V 240 H 60" 
        stroke="white" stroke-width="45" stroke-linecap="round" stroke-linejoin="round" fill="none"/>
        
  <!-- The Number 6 -->
  <path d="M240 60 H 160 V 240 H 240 V 140 H 160" 
        stroke="white" stroke-width="45" stroke-linecap="round" stroke-linejoin="round" fill="none"/>

  <!-- Stylized Trophy Silhouette -->
  <path d="M150 260 
           C 150 260, 130 250, 130 220 
           C 130 190, 150 180, 150 150 
           C 150 120, 170 110, 170 80 
           H 130 
           C 130 110, 150 120, 150 150 
           C 150 180, 170 190, 170 220 
           C 170 250, 150 260, 150 260 Z" 
        fill="url(#goldGradient)" stroke="#B8860B" stroke-width="2"/>
        
  <!-- Base of Trophy -->
  <rect x="130" y="260" width="40" height="10" rx="2" fill="#006400" />
  <rect x="125" y="270" width="50" height="5" rx="2" fill="#006400" />

  <!-- Text -->
  <text x="150" y="295" text-anchor="middle" fill="white" font-family="Arial, sans-serif" font-weight="bold" font-size="14" letter-spacing="2">FIFA WORLD CUP 2026</text>
</svg>
